<?xml version="1.0" standalone="no"?>
<!DOCTYPE svg PUBLIC "-//W3C//DTD SVG 20010904//EN"
 "http://www.w3.org/TR/2001/REC-SVG-20010904/DTD/svg10.dtd">
<svg version="1.0" xmlns="http://www.w3.org/2000/svg"
 width="500.000000pt" height="500.000000pt" viewBox="0 0 500.000000 500.000000"
 preserveAspectRatio="xMidYMid meet">
<metadata>
Created by potrace 1.14, written by Peter Selinger 2001-2017
</metadata>
<g transform="translate(0.000000,500.000000) scale(0.100000,-0.100000)"
fill="#000000" stroke="none">
<path d="M2222 4761 c-15 -9 -42 -75 -42 -101 0 -11 -4 -20 -8 -20 -16 0 -34
-68 -23 -89 14 -25 14 -44 1 -36 -5 3 -16 3 -22 -2 -7 -4 -25 -6 -39 -5 -15 2
-53 -4 -87 -12 -33 -9 -99 -16 -146 -16 -79 0 -86 -2 -86 -20 0 -15 -12 -23
-55 -35 -40 -12 -55 -21 -55 -34 0 -10 3 -21 7 -24 3 -4 8 -18 9 -32 2 -19 -2
-25 -17 -25 -10 0 -19 -3 -19 -6 0 -13 25 -50 42 -62 10 -7 16 -17 13 -22 -3
-5 -1 -20 6 -32 12 -22 11 -22 -8 -5 -39 34 -56 15 -28 -33 8 -14 14 -34 15
-45 0 -18 -1 -18 -16 3 -20 29 -32 28 -40 -4 -6 -22 -8 -24 -16 -10 -5 9 -13
16 -18 16 -17 0 -11 -36 10 -63 26 -32 9 -49 -43 -40 -28 4 -38 2 -43 -11 -3
-9 -10 -13 -15 -10 -5 3 -22 -9 -37 -27 -15 -17 -37 -43 -49 -57 -13 -14 -23
-37 -23 -51 -1 -22 -2 -24 -11 -8 -28 48 -39 -16 -15 -85 8 -23 10 -38 4 -38
-18 0 14 -205 35 -226 12 -12 8 -73 -7 -108 -13 -30 -12 -37 2 -58 10 -14 18
-47 19 -83 1 -33 3 -64 3 -70 2 -36 -12 -219 -25 -320 -17 -126 -18 -192 -19
-802 -1 -210 -4 -385 -8 -389 -12 -12 -16 -3 -52 102 -31 92 -33 106 -29 199
2 55 6 115 9 133 6 38 30 43 44 10 6 -16 9 -18 9 -7 1 9 -7 27 -17 39 l-19 23
-16 -24 c-20 -27 -22 -12 -5 26 9 21 17 26 37 22 24 -5 24 -4 7 8 -44 33 -68
-17 -74 -153 -2 -59 1 -129 8 -164 10 -51 65 -214 77 -228 2 -2 12 1 22 7 17
10 19 8 24 -25 3 -20 9 -82 12 -137 6 -95 12 -154 36 -325 7 -50 25 -109 56
-180 66 -148 135 -234 264 -327 30 -23 77 -67 105 -98 83 -98 155 -163 257
-236 l99 -69 81 -4 c45 -2 103 -10 129 -16 35 -9 59 -9 100 0 29 6 91 13 137
15 64 3 89 9 105 23 12 10 55 40 96 67 45 28 119 92 185 160 61 61 140 133
176 158 105 73 173 155 239 289 42 84 61 137 70 190 7 40 20 114 30 163 10 50
23 133 30 185 19 161 20 168 37 166 18 -1 51 73 83 189 37 130 22 351 -25 368
-15 6 -55 -19 -55 -34 0 -6 7 -3 16 5 21 21 30 20 48 -6 23 -32 20 -56 -2 -28
l-19 23 -16 -24 c-10 -13 -17 -33 -16 -44 1 -17 2 -16 8 4 4 14 12 26 18 28
22 8 31 -31 35 -145 2 -62 0 -104 -4 -95 -6 12 -7 8 -4 -12 6 -38 -51 -218
-67 -212 -7 2 -13 33 -15 76 -2 43 1 70 6 67 16 -9 64 70 59 96 -4 19 -5 20
-6 3 -1 -11 -10 -31 -20 -44 l-19 -25 5 47 c4 30 2 47 -5 47 -6 0 -13 -21 -15
-47 -3 -27 -2 15 0 92 3 77 4 147 4 155 -1 8 -4 50 -7 94 -4 48 -2 86 4 100
20 38 32 138 38 291 2 83 9 185 15 227 8 56 8 86 0 109 -6 17 -8 36 -5 41 3 5
8 48 10 96 4 82 12 118 36 169 18 38 8 216 -13 229 -5 3 -9 34 -9 69 0 35 -5
67 -11 71 -6 3 -9 14 -6 24 6 22 -10 50 -28 50 -24 0 -36 37 -34 103 2 47 7
65 21 75 22 16 24 48 2 56 -13 5 -10 11 17 29 46 31 80 96 86 165 5 52 2 62
-26 107 -17 28 -37 50 -44 50 -7 0 -15 -24 -19 -62 -4 -34 -12 -71 -18 -83
-11 -20 -11 -20 -43 4 -18 14 -43 29 -55 33 l-23 9 28 14 c60 30 84 73 48 86
-23 9 -105 -27 -127 -57 -11 -15 -33 -30 -49 -33 -16 -3 -50 -25 -75 -48 -44
-41 -47 -42 -60 -23 -8 10 -14 27 -14 38 0 10 -5 27 -10 38 -13 23 -13 23 40
4 23 -8 52 -15 63 -15 17 0 19 5 13 32 -9 44 -78 114 -143 145 -36 17 -53 31
-53 44 0 22 -37 34 -72 24 l-23 -7 23 24 c37 40 29 72 -28 117 -69 54 -86 59
-111 27 -30 -38 -45 -35 -100 19 -11 11 -27 35 -35 53 -17 41 -35 37 -47 -9
-13 -50 -22 -56 -86 -64 -43 -5 -73 -2 -112 10 -30 9 -67 21 -82 25 -15 5 -51
6 -80 3 -49 -5 -53 -4 -69 24 -36 62 -108 112 -136 94z m835 -317 c-3 -3 -12
-4 -19 -1 -8 3 -5 6 6 6 11 1 17 -2 13 -5z m-42 -863 c44 -13 98 -32 120 -42
22 -10 52 -21 67 -24 31 -8 160 -139 184 -188 9 -18 31 -48 50 -67 36 -38 40
-53 64 -235 20 -158 42 -275 50 -275 10 0 25 -40 22 -54 -5 -17 28 -74 53 -90
21 -14 25 -24 24 -59 -3 -91 -18 -117 -33 -55 -5 21 -13 27 -46 32 -22 3 -57
9 -78 12 -29 4 -53 19 -93 57 -30 29 -80 65 -112 81 -52 26 -64 28 -124 22
-36 -4 -84 -15 -107 -25 -23 -10 -56 -24 -73 -31 -18 -7 -33 -17 -33 -22 0 -5
-4 -6 -10 -3 -5 3 -10 1 -10 -6 0 -7 -3 -9 -7 -6 -9 9 -43 -22 -43 -40 0 -7
-9 -14 -20 -14 -22 -2 -28 -3 -50 -12 -44 -17 -184 -41 -245 -41 -87 0 -275
40 -292 62 -7 9 -13 11 -13 5 0 -6 -11 -8 -26 -5 -20 3 -24 9 -20 24 2 11 2
17 -1 14 -4 -3 -13 3 -21 15 -8 11 -20 18 -28 15 -7 -3 -17 1 -21 9 -12 21
-159 75 -223 82 -52 5 -66 2 -117 -23 -58 -29 -162 -119 -151 -130 4 -3 20 2
36 10 103 53 183 64 269 36 37 -12 72 -26 76 -30 7 -6 -152 -19 -326 -26 -38
-1 -71 -5 -75 -8 -3 -3 -18 -6 -32 -6 -75 0 -91 -10 -121 -74 -16 -34 -42 -77
-59 -96 -27 -30 -30 -32 -30 -13 0 65 59 266 99 334 12 23 21 64 26 124 13
184 39 294 89 391 70 136 126 183 341 287 200 97 319 116 725 113 247 -1 271
-3 345 -25z m330 -1002 c31 -11 54 -23 51 -26 -2 -3 -50 0 -106 6 -55 6 -124
11 -153 12 l-52 0 45 19 c56 24 133 20 215 -11z m-1771 -221 c7 -13 23 -70 35
-128 42 -215 71 -265 189 -322 65 -32 71 -33 192 -33 142 0 197 14 280 71 28
19 50 32 50 29 0 -3 -21 -33 -46 -67 -138 -186 -129 -312 24 -341 23 -5 32 -3
32 7 0 8 -16 16 -41 20 -120 19 -118 145 6 306 25 32 48 74 52 92 3 18 19 54
35 80 16 26 45 87 65 135 42 106 73 143 120 143 45 0 72 -31 102 -116 21 -62
54 -132 94 -204 8 -14 20 -42 26 -62 7 -21 27 -63 46 -94 47 -77 63 -151 44
-201 -12 -31 -23 -41 -64 -57 -59 -24 -60 -24 -53 -32 12 -12 88 20 115 48 24
25 28 37 27 87 -1 49 -9 74 -45 147 -24 48 -46 92 -48 97 -2 6 12 -2 31 -16
85 -66 225 -94 368 -76 99 12 154 35 202 85 50 53 75 112 104 257 32 155 61
204 84 143 9 -25 5 -613 -6 -741 -3 -38 -12 -90 -19 -115 -8 -25 -22 -69 -31
-99 -14 -51 -168 -301 -210 -343 -10 -10 -32 -18 -50 -18 -63 0 -81 -14 -105
-82 -29 -80 -91 -149 -274 -307 -79 -69 -195 -141 -225 -141 -5 0 -10 14 -10
30 0 32 -32 104 -51 115 -6 4 -13 -2 -16 -14 -6 -22 -15 -26 -96 -36 -53 -7
-144 17 -163 43 -9 12 -14 10 -33 -17 -13 -18 -25 -50 -28 -71 -3 -22 -8 -40
-11 -40 -24 0 -142 81 -194 132 -35 35 -83 76 -107 93 -24 16 -54 45 -66 65
-12 19 -36 47 -53 62 -20 17 -37 49 -52 95 -26 80 -40 93 -95 93 -28 0 -47 6
-58 18 -21 23 -119 182 -158 256 -49 93 -77 276 -91 579 -10 225 -9 249 6 265
9 10 16 30 16 43 0 39 34 91 81 126 53 38 55 39 73 11z m-297 -320 c-2 -13 -4
-3 -4 22 0 25 2 35 4 23 2 -13 2 -33 0 -45z"/>
<path d="M2754 1873 c3 -17 -1 -56 -9 -85 -11 -42 -11 -49 0 -35 19 26 27 99
15 128 -10 22 -10 22 -6 -8z"/>
<path d="M2676 1645 c-94 -67 -143 -69 -236 -10 -59 38 -99 44 -124 19 -26
-26 -19 -31 52 -37 37 -3 86 -15 109 -26 56 -28 93 -26 155 5 30 15 76 28 110
32 58 5 70 16 46 40 -21 21 -62 13 -112 -23z"/>
<path d="M2398 1396 c-20 -7 -52 -23 -72 -34 -45 -26 -129 -52 -172 -52 -37 0
-64 -8 -64 -20 0 -20 61 -77 129 -122 104 -68 205 -98 330 -98 159 0 281 47
396 152 79 72 76 79 -40 92 -28 4 -87 24 -135 47 -97 48 -154 58 -198 37 -24
-13 -32 -13 -47 -1 -23 16 -79 16 -127 -1z m124 -51 c6 -14 15 -25 21 -25 5 0
18 11 29 25 29 37 80 34 164 -11 37 -20 99 -43 137 -53 l69 -17 -53 -41 c-67
-50 -117 -76 -194 -99 -79 -23 -211 -23 -290 0 -77 23 -185 79 -220 116 l-27
28 55 12 c30 6 90 29 134 50 97 49 157 54 175 15z"/>
<path d="M2301 1236 c58 -14 112 -18 244 -18 132 0 186 4 244 18 l74 19 -318
0 -318 0 74 -19z"/>
<path d="M3650 2039 c0 -8 5 -20 11 -26 6 -6 15 -26 20 -45 8 -31 8 -30 5 11
-3 24 -12 51 -20 60 -14 13 -16 13 -16 0z"/>
<path d="M1327 2013 c-10 -18 -17 -42 -16 -55 1 -21 2 -20 9 5 5 16 14 35 20
42 7 8 10 20 8 27 -3 8 -12 -1 -21 -19z"/>
<path d="M1352 1870 c4 -78 18 -78 18 0 0 34 -4 60 -10 60 -6 0 -9 -25 -8 -60z"/>
<path d="M1310 1902 c0 -18 30 -75 36 -69 3 3 -4 22 -15 43 -12 21 -21 33 -21
26z"/>
<path d="M1291 1884 c0 -11 3 -14 6 -6 3 7 2 16 -1 19 -3 4 -6 -2 -5 -13z"/>
<path d="M3687 1851 c-4 -17 -3 -21 5 -13 5 5 8 16 6 23 -3 8 -7 3 -11 -10z"/>
</g>
</svg>
